<?xml version="1.0" standalone="no"?>
<!DOCTYPE svg PUBLIC "-//W3C//DTD SVG 20010904//EN"
 "http://www.w3.org/TR/2001/REC-SVG-20010904/DTD/svg10.dtd">
<svg version="1.0" xmlns="http://www.w3.org/2000/svg"
 width="1024.000000pt" height="1024.000000pt" viewBox="0 0 1024.000000 1024.000000"
 preserveAspectRatio="xMidYMid meet">

<g transform="translate(0.000000,1024.000000) scale(0.100000,-0.100000)"
fill="#000000" stroke="none">
<path d="M1732 7308 l3 -52 90 -12 c138 -17 195 -37 253 -89 57 -51 96 -123
113 -205 12 -62 19 -2876 7 -3038 -7 -105 -40 -189 -98 -256 -54 -61 -147 -97
-296 -113 l-69 -8 -3 -62 -3 -63 846 0 845 0 0 53 c0 28 -4 57 -8 63 -4 6 -39
14 -78 17 -124 12 -260 71 -319 139 -17 21 -40 62 -51 91 -17 49 -19 96 -22
725 l-3 673 153 -6 c84 -3 176 -8 205 -11 l52 -5 202 -392 c368 -714 510 -974
589 -1082 54 -74 154 -161 221 -195 134 -68 58 -65 1459 -65 l1265 0 145 23
c330 52 525 123 748 274 280 189 416 496 382 862 -13 134 -34 214 -85 321 -74
158 -181 277 -346 385 -166 109 -348 173 -593 207 l-121 17 65 14 c366 75 616
250 744 523 59 124 71 184 70 364 0 175 -11 234 -64 351 -154 339 -507 546
-1015 594 -67 6 -468 10 -1018 10 l-908 0 3 -52 3 -53 58 -7 c277 -35 392
-168 406 -468 3 -69 4 -759 1 -1535 -5 -1325 -6 -1413 -23 -1455 -42 -105
-117 -171 -219 -191 -44 -9 -66 -8 -118 5 -84 22 -136 53 -222 134 -135 127
-252 300 -568 837 -100 171 -204 340 -231 376 -58 78 -185 202 -258 252 l-52
34 93 23 c256 62 481 183 647 349 178 178 265 376 278 636 30 608 -348 975
-1127 1091 -101 15 -234 18 -1073 21 l-958 4 3 -53z m1698 -163 c118 -22 200
-50 305 -104 284 -145 422 -464 386 -891 -30 -348 -148 -564 -370 -679 -166
-85 -296 -111 -593 -118 l-218 -6 0 913 0 913 203 -6 c114 -4 239 -13 287 -22z
m3355 -3 c307 -66 482 -222 556 -498 30 -109 32 -350 6 -474 -55 -255 -215
-444 -468 -551 -116 -50 -184 -60 -406 -65 l-203 -4 0 812 0 811 213 -6 c150
-5 238 -12 302 -25z m-130 -1782 c648 -60 934 -326 935 -871 0 -305 -72 -512
-235 -674 -164 -164 -411 -232 -748 -205 -164 12 -249 30 -279 56 -54 49 -53
23 -56 897 l-3 807 138 0 c76 0 188 -5 248 -10z"/>
</g>
</svg>
